<?xml version="1.0" encoding="utf-8"?>
<svg xmlns="http://www.w3.org/2000/svg" xmlns:xlink="http://www.w3.org/1999/xlink" version= "1.1" width="200px" height="200px" viewBox="440 1046 200 200">
<g id="layer1">
<g style="fill:rgb(254,105,95); fill-opacity:1.0; stroke-linejoin: miter">
<path d="M503.8081,1085.2312L503.5879,1088.5051Q502.0219,1098.3994,494.42404,1104.3317Q486.77356,1110.2592,476.40613,1109.1388Q466.51178,1107.5729,460.57956,1099.975Q458.67883,1097.519,457.4483,1094.6228L456.41406,1091.6453Q455.56177,1088.572,455.5522,1085.2312Q455.8109,1074.9783,462.6191,1068.1702Q469.4273,1061.3619,479.68018,1061.1033Q489.93304,1061.3619,496.7412,1068.1702Q503.54938,1074.9783,503.8081,1085.2312"/>
</g>
<g style="fill:rgb(254,105,95); fill-opacity:1.0; stroke-linejoin: miter">
<path d="M503.8081,1145.551L503.58786,1148.825Q502.0219,1158.7192,494.42404,1164.6515Q486.77356,1170.579,476.40613,1169.4586Q466.51178,1167.8927,460.57956,1160.2948Q458.6788,1157.8389,457.4483,1154.9426L456.41406,1151.9651Q455.56177,1148.8918,455.5522,1145.551Q455.8109,1135.2981,462.6191,1128.49Q469.4273,1121.6818,479.68015,1121.4231Q489.93304,1121.6818,496.7412,1128.49Q503.54938,1135.2981,503.8081,1145.551"/>
</g>
<g style="fill:rgb(254,105,95); fill-opacity:1.0; stroke-linejoin: miter">
<path d="M503.8081,1205.8707L503.5879,1209.1448Q502.0219,1219.0391,494.42404,1224.9713Q486.77356,1230.8987,476.40613,1229.7784Q466.51178,1228.2125,460.57956,1220.6146Q458.67883,1218.1587,457.4483,1215.2625L456.41406,1212.2849Q455.56177,1209.2117,455.5522,1205.8707Q455.8109,1195.6179,462.6191,1188.8097Q469.4273,1182.0016,479.68018,1181.7428Q489.93304,1182.0016,496.7412,1188.8097Q503.54938,1195.6179,503.8081,1205.8707"/>
</g>
<g style="fill:rgb(254,105,95); fill-opacity:1.0; stroke-linejoin: miter">
<path d="M564.12805,1205.8707L563.9078,1209.1448Q562.3418,1219.0391,554.7439,1224.9713Q547.0935,1230.8987,536.726,1229.7784Q526.83167,1228.2124,520.8995,1220.6145Q518.99866,1218.1586,517.7682,1215.2625L516.73395,1212.2849Q515.88165,1209.2117,515.8721,1205.8707Q516.1308,1195.6179,522.939,1188.8097Q529.7472,1182.0015,540.00006,1181.7428Q550.2529,1182.0015,557.0611,1188.8097Q563.86926,1195.6179,564.12805,1205.8707"/>
</g>
<g style="fill:rgb(254,105,95); fill-opacity:1.0; stroke-linejoin: miter">
<path d="M564.12805,1145.551L563.9078,1148.825Q562.3418,1158.7192,554.7439,1164.6515Q547.0935,1170.579,536.726,1169.4586Q526.83167,1167.8927,520.8995,1160.2948Q518.99866,1157.8389,517.7682,1154.9426L516.73395,1151.9651Q515.88165,1148.8918,515.8721,1145.551Q516.1308,1135.2981,522.939,1128.49Q529.7472,1121.6818,540.00006,1121.4231Q550.2529,1121.6818,557.0611,1128.49Q563.86926,1135.2981,564.12805,1145.551"/>
</g>
<g style="fill:rgb(254,105,95); fill-opacity:1.0; stroke-linejoin: miter">
<path d="M564.12805,1085.2312L563.9078,1088.5051Q562.3418,1098.3994,554.7439,1104.3317Q547.0935,1110.2592,536.726,1109.1388Q526.83167,1107.5729,520.8995,1099.975Q518.99866,1097.519,517.7682,1094.6228L516.73395,1091.6453Q515.88165,1088.572,515.8721,1085.2312Q516.1308,1074.9783,522.939,1068.1702Q529.7472,1061.3619,540.00006,1061.1033Q550.2529,1061.3619,557.0611,1068.1702Q563.86926,1074.9783,564.12805,1085.2312"/>
</g>
<g style="fill:rgb(254,105,95); fill-opacity:1.0; stroke-linejoin: miter">
<path d="M624.44794,1205.8707L624.22766,1209.1448Q622.66174,1219.0391,615.06384,1224.9713Q607.4134,1230.8987,597.04596,1229.7784Q587.1516,1228.2124,581.21936,1220.6145Q579.3186,1218.1586,578.0881,1215.2625L577.05383,1212.2849Q576.2016,1209.2117,576.192,1205.8707Q576.45074,1195.6179,583.2589,1188.8097Q590.06714,1182.0015,600.32,1181.7428Q610.5729,1182.0015,617.38104,1188.8097Q624.1892,1195.6179,624.44794,1205.8707"/>
</g>
<g style="fill:rgb(254,105,95); fill-opacity:1.0; stroke-linejoin: miter">
<path d="M624.44794,1145.551L624.22766,1148.825Q622.66174,1158.7192,615.06384,1164.6515Q607.4133,1170.579,597.0459,1169.4586Q587.1516,1167.8927,581.21936,1160.2948Q579.3186,1157.8389,578.0881,1154.9426L577.05383,1151.9651Q576.2016,1148.8918,576.192,1145.551Q576.4507,1135.2981,583.2589,1128.49Q590.0671,1121.6818,600.31995,1121.4231Q610.5728,1121.6818,617.381,1128.49Q624.1892,1135.2981,624.44794,1145.551"/>
</g>
<g style="fill:rgb(254,105,95); fill-opacity:1.0; stroke-linejoin: miter">
<path d="M624.44794,1085.2312L624.22766,1088.5051Q622.66174,1098.3995,615.06384,1104.3318Q607.4133,1110.2592,597.0459,1109.1389Q587.1516,1107.5729,581.21936,1099.9751Q579.3186,1097.519,578.0881,1094.6228L577.05383,1091.6454Q576.2016,1088.5721,576.192,1085.2312Q576.4507,1074.9783,583.2589,1068.1702Q590.0671,1061.362,600.31995,1061.1033Q610.5728,1061.362,617.381,1068.1702Q624.1892,1074.9783,624.44794,1085.2312"/>
</g>
<g style="fill:rgb(144,144,144); fill-opacity:1.0; stroke-linejoin: miter">
<path d="M251.94356,-1102.7969L251.94305,-1102.7957L251.94255,-1102.7946L251.94305,-1102.7957L251.94356,-1102.7969L251.94305,-1102.7957L251.94255,-1102.7946Q251.94305,-1102.7957,251.94356,-1102.7969"/>
</g>
<g style="fill:rgb(144,144,144); fill-opacity:1.0; stroke-linejoin: miter">
<path d="M928.00006,1760.0L927.9996,1760.0012L927.9991,1760.0024L927.9996,1760.0012L928.00006,1760.0L927.9996,1760.0012L927.9991,1760.0024Q927.9996,1760.0012,928.00006,1760.0"/>
</g>
<g style="fill:rgb(144,144,144); fill-opacity:1.0; stroke-linejoin: miter">
<path d="M423.64297,602.13525L423.64294,602.1355L423.6429,602.13574L423.64294,602.1355L423.64297,602.13525L423.64294,602.1355L423.6429,602.13574Q423.64294,602.1355,423.64297,602.13525"/>
</g>
</g>
<g id="layer2">
</g>
</svg>