<?xml version="1.0" encoding="utf-8"?>
<svg xmlns="http://www.w3.org/2000/svg" xmlns:xlink="http://www.w3.org/1999/xlink" version= "1.1" width="200px" height="200px" viewBox="440 1046 200 200">
<g id="layer1">
<g style="fill:rgb(163,45,45); fill-opacity:1.0; stroke-linejoin: miter">
<path d="M457.47897,1066.6748C452.629,1066.6829,448.56754,1070.4739,448.28726,1075.379C447.99646,1080.4692,451.88666,1084.8309,456.97623,1085.1218L459.03214,1085.2391L459.03214,1085.2391L460.0126,1085.4336L460.47864,1085.6117L460.47864,1085.6117L460.58508,1085.6793L460.65308,1085.7858L460.83298,1086.2512L461.03052,1087.2308L461.14346,1089.0973L461.14044,1089.0973Q461.2434,1097.804,465.72232,1103.3837C465.9355,1103.6493,466.16327,1103.903,466.40448,1104.1436L467.83414,1105.5684C468.31113,1106.0438,468.83875,1106.4655,469.4075,1106.8262L471.15353,1107.9331C471.67264,1108.2625,472.2231,1108.5387,472.797,1108.7584L474.85974,1109.5479C475.34787,1109.7346,475.851,1109.8796,476.36386,1109.9813L478.74316,1110.4529C479.1617,1110.5358,479.58554,1110.59,480.01166,1110.6143L482.70758,1110.7681C482.88818,1110.7786,483.06885,1110.7836,483.24957,1110.7834C483.43027,1110.7828,483.611,1110.7773,483.7915,1110.7664L486.48694,1110.6034C486.91284,1110.5776,487.3366,1110.5221,487.75494,1110.4377L490.13266,1109.958C490.6451,1109.8549,491.14764,1109.708,491.63525,1109.5198L493.69525,1108.7231C494.2684,1108.5018,494.81793,1108.2236,495.33582,1107.8928L497.0783,1106.7798C497.64584,1106.4171,498.172,1105.9938,498.64746,1105.5167L500.07224,1104.0872C500.3126,1103.846,500.53958,1103.5917,500.7517,1103.3253Q505.2098,1097.7336,505.2858,1089.0325L505.28238,1089.0325L505.38968,1087.157L505.584,1086.1766L505.7624,1085.7104L505.82986,1085.6041L505.82986,1085.6041L505.9361,1085.5359L505.9361,1085.5359L506.4015,1085.3561L507.3812,1085.1587L507.3812,1085.1587L508.89487,1085.067L508.89487,1085.067L510.40872,1085.1536L510.40872,1085.1536L511.38913,1085.3478L511.85526,1085.5262L511.85526,1085.5262L511.9617,1085.5939L512.02954,1085.7L512.2096,1086.1654L512.2096,1086.1654L512.4071,1087.145L512.5314,1089.2012C512.5366,1089.287,512.5431,1089.3723,512.5503,1089.4569L512.5469,1089.4569L512.69446,1091.8967C512.7202,1092.3225,512.7755,1092.7463,512.85986,1093.1644L513.3397,1095.5424C513.4429,1096.0548,513.5897,1096.5574,513.7781,1097.045L514.5742,1099.1051C514.7958,1099.6781,515.074,1100.2279,515.4049,1100.7458L516.5178,1102.4885C516.8801,1103.0557,517.3037,1103.5822,517.78076,1104.0575L519.2103,1105.4824C519.68713,1105.9578,520.21484,1106.3798,520.7837,1106.7401L522.52954,1107.8472C523.04846,1108.1763,523.599,1108.4524,524.17285,1108.6721L526.2355,1109.4617C526.7239,1109.6488,527.2269,1109.7935,527.7395,1109.895L530.1188,1110.3668C530.53735,1110.45,530.9613,1110.5039,531.3872,1110.528L533.95874,1110.6749L533.9551,1110.6749C534.1738,1110.6903,534.3943,1110.6979,534.61646,1110.6975C534.6289,1110.6975,534.64124,1110.6973,534.6537,1110.6974L534.6499,1110.6974C534.8634,1110.6968,535.0753,1110.6887,535.28516,1110.6735L535.2815,1110.6735L537.86255,1110.5171C538.2883,1110.4913,538.71204,1110.4362,539.13025,1110.3519L541.50806,1109.8721C542.02014,1109.7688,542.5228,1109.6221,543.0104,1109.4337L545.07043,1108.6373C545.64343,1108.4156,546.1931,1108.1375,546.7108,1107.8068L548.45337,1106.6938C549.02075,1106.3314,549.5471,1105.908,550.02234,1105.4308L551.447,1104.001C551.9226,1103.5242,552.34436,1102.9966,552.70483,1102.4277L553.812,1100.6814C554.1411,1100.1626,554.4175,1099.6118,554.63696,1099.0381L555.4265,1096.9752C555.6133,1096.4869,555.7582,1095.984,555.86,1095.4716L556.33154,1093.0919C556.41455,1092.6733,556.4684,1092.2495,556.4929,1091.8234L556.6315,1089.3993L556.62744,1089.3993C556.63513,1089.309,556.6417,1089.2183,556.64685,1089.1277L556.7643,1087.071L556.95886,1086.0912L557.1371,1085.625L557.2046,1085.5186L557.2046,1085.5186L557.3109,1085.4504L557.3109,1085.4504L557.77625,1085.2708L558.7561,1085.0731L558.7561,1085.0731L560.26904,1084.9814L560.26904,1084.9814L561.78345,1085.0682L561.78345,1085.0682L562.7637,1085.2622L563.22974,1085.4408L563.3363,1085.5084L563.3363,1085.5084L563.4042,1085.6146L563.584,1086.0798L563.584,1086.0798L563.7816,1087.0598L563.9059,1089.1155C563.9116,1089.2072,563.91846,1089.2985,563.9265,1089.3896L563.9226,1089.3895L564.0691,1091.811C564.0947,1092.2367,564.15015,1092.6605,564.2344,1093.0789L564.714,1095.4564C564.81726,1095.9688,564.9641,1096.4718,565.1526,1096.9594L565.9486,1099.0192C566.17017,1099.5925,566.4486,1100.1421,566.7792,1100.6602L567.8921,1102.4026C568.25464,1102.9701,568.6782,1103.4963,569.1549,1103.9716L570.58435,1105.3961C571.0613,1105.8716,571.58875,1106.2932,572.15735,1106.654L573.9033,1107.761C574.42236,1108.0901,574.97314,1108.3667,575.5469,1108.5862L577.6094,1109.3756C578.0978,1109.5625,578.6007,1109.7075,579.1133,1109.8092L581.49243,1110.2806C581.911,1110.3639,582.33484,1110.4174,582.76086,1110.4418L585.34033,1110.5892L585.3362,1110.5892C585.55225,1110.6041,585.7704,1110.6118,585.9901,1110.6113C585.9922,1110.6113,585.9944,1110.6113,585.99646,1110.6113L586.00073,1110.6113C586.0029,1110.6113,586.005,1110.6113,586.0073,1110.6113C586.2267,1110.6107,586.44495,1110.6027,586.66125,1110.587L586.65686,1110.587L589.2357,1110.4309C589.66174,1110.4053,590.0853,1110.3501,590.50354,1110.2656L592.8812,1109.786C593.39355,1109.6826,593.8961,1109.5361,594.38354,1109.3475L596.4436,1108.5513C597.0167,1108.3295,597.5664,1108.0514,598.0842,1107.7203L599.8264,1106.6075C600.39404,1106.2451,600.92004,1105.8215,601.3954,1105.3445L602.81995,1103.9149C603.2953,1103.4382,603.71716,1102.9105,604.07764,1102.3419L605.1848,1100.596C605.5137,1100.0767,605.79016,1099.5262,606.01,1098.9523L606.7992,1096.8893C606.9861,1096.4011,607.131,1095.8982,607.23267,1095.3854L607.7046,1093.006C607.78735,1092.5874,607.8413,1092.1637,607.8656,1091.7377L608.0032,1089.3301L607.99866,1089.3302C608.0071,1089.2343,608.01416,1089.138,608.01965,1089.0419L608.1372,1086.9857L608.33154,1086.0052L608.51,1085.5393L608.51,1085.5393L608.5774,1085.4329L608.68384,1085.365L609.1494,1085.1852L610.1289,1084.9873L610.1289,1084.9873L612.1841,1084.8628C617.2721,1084.5552,621.14746,1080.1805,620.8396,1075.0923C620.54297,1070.1884,616.4696,1066.4109,611.62024,1066.419C611.43774,1066.4191,611.2543,1066.4249,611.0696,1066.4359L608.37463,1066.5991C607.9486,1066.6249,607.525,1066.68,607.1067,1066.7644L604.7291,1067.2439C604.2169,1067.3475,603.71423,1067.494,603.2268,1067.6827L601.16675,1068.4789C600.5936,1068.7006,600.04407,1068.9786,599.5261,1069.3093L597.7838,1070.4225C597.2163,1070.785,596.6902,1071.2085,596.21497,1071.6855L594.7905,1073.115C594.31506,1073.5919,593.89343,1074.1195,593.5327,1074.6882L592.4258,1076.4341C592.09656,1076.9531,591.8203,1077.5039,591.6007,1078.0779L590.8113,1080.1406C590.6245,1080.6289,590.4795,1081.1318,590.3778,1081.6447L589.906,1084.0238C589.823,1084.4425,589.76904,1084.8666,589.74475,1085.2924L589.5907,1087.9883C589.5852,1088.0831,589.5813,1088.1775,589.57874,1088.2717L589.57446,1088.2717L589.47314,1090.0444L589.27893,1091.0247L589.10046,1091.491L589.03296,1091.5973L588.92676,1091.6652L588.46106,1091.845L587.48157,1092.0426L587.48157,1092.0426L585.96826,1092.1344L585.96826,1092.1344L584.4542,1092.0477L584.4542,1092.0477L583.4741,1091.8534L583.0077,1091.6748L582.9015,1091.6077L582.8336,1091.5013L582.65356,1091.0356L582.45593,1090.0558L582.34875,1088.281L582.3445,1088.281C582.34155,1088.1877,582.3374,1088.0945,582.3319,1088.0005L582.1688,1085.3049C582.14294,1084.8788,582.0879,1084.4556,582.0033,1084.0369L581.5237,1081.659C581.4204,1081.147,581.2738,1080.6443,581.08545,1080.1567L580.28906,1078.0964C580.0675,1077.5233,579.7892,1076.9739,579.4585,1076.4562L578.3458,1074.7137C577.9835,1074.1462,577.5598,1073.6198,577.08276,1073.1444L575.6533,1071.7197C575.1764,1071.2443,574.6488,1070.8225,574.07996,1070.4617L572.33386,1069.3545C571.8152,1069.0258,571.26465,1068.7493,570.6908,1068.5297L568.6283,1067.7402C568.14,1067.5532,567.63696,1067.4083,567.12427,1067.3068L564.7451,1066.835C564.3263,1066.7518,563.9027,1066.6981,563.47644,1066.6737L560.9431,1066.5289L560.9391,1066.5289C560.71045,1066.5122,560.4796,1066.5037,560.2473,1066.5043C560.2334,1066.5042,560.2195,1066.5043,560.20557,1066.5043L560.20154,1066.5043C559.98096,1066.5054,559.7621,1066.5143,559.5448,1066.5306L559.5409,1066.5306L557.0016,1066.6843C556.57556,1066.7101,556.152,1066.7653,555.73364,1066.8499L553.3561,1067.3296C552.84375,1067.4329,552.34094,1067.5793,551.85364,1067.7678L549.79346,1068.5643C549.22034,1068.7859,548.6708,1069.0641,548.15295,1069.395L546.4105,1070.5079C545.84314,1070.8705,545.3169,1071.294,544.84155,1071.7709L543.4169,1073.2004C542.94165,1073.6775,542.5198,1074.205,542.1592,1074.7737L541.0521,1076.5197C540.723,1077.039,540.44653,1077.5894,540.22705,1078.1633L539.4376,1080.2261C539.25085,1080.7144,539.1057,1081.2175,539.00415,1081.7302L538.5325,1084.1096C538.44946,1084.5282,538.3955,1084.9521,538.37134,1085.3782L538.2173,1088.0742L538.2173,1088.0742L538.0996,1090.1304L537.9053,1091.1107L537.9053,1091.1107L537.7268,1091.5769L537.7268,1091.5769L537.6594,1091.683L537.6594,1091.683L537.5532,1091.7509L537.08777,1091.9312L536.1079,1092.1284L536.1079,1092.1284L534.5947,1092.2201L534.5947,1092.2201L533.08044,1092.1337L533.08044,1092.1337L532.1002,1091.9391L532.1002,1091.9391L531.63416,1091.7611L531.5276,1091.6935L531.5276,1091.6935L531.45984,1091.5872L531.28,1091.1216L531.28,1091.1216L531.0824,1090.1422L530.974,1088.3492L530.97034,1088.3492C530.9674,1088.2617,530.9634,1088.1741,530.958,1088.086L530.7949,1085.3906C530.76904,1084.9648,530.71375,1084.5411,530.6294,1084.1228L530.1498,1081.7449C530.0465,1081.2325,529.8998,1080.73,529.7113,1080.2426L528.91516,1078.1823C528.6935,1077.6089,528.4153,1077.0593,528.0845,1076.5415L526.9717,1074.7987C526.60913,1074.2314,526.1858,1073.7053,525.7086,1073.2296L524.2792,1071.8048C523.8021,1071.3297,523.27466,1070.9078,522.70593,1070.5472L520.95984,1069.4401C520.4408,1069.1106,519.89014,1068.8346,519.3163,1068.6147L517.2538,1067.8253C516.7656,1067.6385,516.26245,1067.4935,515.7495,1067.3917L513.3705,1066.9199C512.9519,1066.837,512.5281,1066.7833,512.1018,1066.7588L509.56302,1066.6136L509.55954,1066.6136C509.3325,1066.5974,509.1035,1066.5894,508.87247,1066.5895C508.8696,1066.5895,508.8668,1066.5895,508.86398,1066.5895L508.86398,1066.5895C508.8611,1066.5895,508.8583,1066.5895,508.85544,1066.5895C508.6246,1066.5898,508.39548,1066.5989,508.16855,1066.6161L508.1652,1066.6163L505.62677,1066.7697C505.20078,1066.7953,504.77716,1066.8507,504.35883,1066.935L501.9811,1067.4148C501.4687,1067.518,500.96613,1067.6649,500.47852,1067.8533L498.4185,1068.6495C497.84515,1068.8707,497.2957,1069.1494,496.7777,1069.4802L495.03534,1070.593C494.4678,1070.9557,493.94162,1071.3792,493.46625,1071.8561L492.0415,1073.2856C491.5661,1073.7626,491.14435,1074.2902,490.7838,1074.8591L489.67676,1076.6053C489.34763,1077.1241,489.07108,1077.6747,488.85156,1078.249L488.0621,1080.3118C487.8753,1080.7998,487.7303,1081.303,487.62866,1081.8157L487.15686,1084.195C487.07385,1084.6136,487.02002,1085.0376,486.9957,1085.4637L486.84164,1088.1597C486.827,1088.4166,486.82285,1088.6714,486.82913,1088.9243L486.8259,1088.9243Q486.8099,1090.8822,486.44568,1091.6112L486.44244,1091.6112L486.2874,1091.7666L486.1778,1091.8368L485.71213,1092.0167L484.73254,1092.2144L484.73254,1092.2144L483.21875,1092.3057L483.21875,1092.3057L481.70477,1092.2192L481.70477,1092.2192L480.7245,1092.0249L480.7245,1092.0249L480.2585,1091.8467L480.14822,1091.7766L480.14822,1091.7766L479.99277,1091.6217L479.98953,1091.6217Q479.62283,1090.8937,479.60028,1088.9338L479.5971,1088.9338C479.60254,1088.6821,479.59763,1088.428,479.58206,1088.1719L479.41907,1085.4763C479.39337,1085.0504,479.33795,1084.6266,479.25363,1084.2084L478.77393,1081.8306C478.6706,1081.3181,478.52393,1080.8153,478.33548,1080.3278L477.53912,1078.2675C477.3176,1077.6945,477.03934,1077.1445,476.70847,1076.6266L475.59558,1074.8842C475.23312,1074.3167,474.80963,1073.7906,474.3326,1073.3153L472.90305,1071.8904C472.42612,1071.4149,471.8985,1070.9929,471.32965,1070.6323L469.58362,1069.5254C469.0647,1069.1962,468.51416,1068.9199,467.94025,1068.7004L465.8774,1067.9106C465.3892,1067.7239,464.88608,1067.5789,464.37335,1067.4772L461.99393,1067.0052C461.57532,1066.9224,461.15146,1066.8684,460.7255,1066.8442L458.0294,1066.6901C457.84497,1066.6796,457.66132,1066.6743,457.47897,1066.6748 Z"/>
</g>
<g style="fill:rgb(163,45,45); fill-opacity:1.0; stroke-linejoin: miter">
<path d="M457.4789,1130.6748C452.62894,1130.6829,448.56754,1134.474,448.28723,1139.3792C447.99643,1144.4691,451.8866,1148.8309,456.9762,1149.1218L459.03217,1149.2391L459.03217,1149.2391L460.01257,1149.4336L460.47864,1149.6118L460.47864,1149.6118L460.58508,1149.6794L460.65308,1149.7859L460.83295,1150.2512L461.03052,1151.2308L461.14346,1153.0973L461.14047,1153.0973Q461.2434,1161.8041,465.72232,1167.3838C465.93552,1167.6494,466.16327,1167.9031,466.4045,1168.1436L467.8341,1169.5684C468.3111,1170.0438,468.8387,1170.4656,469.4075,1170.8262L471.15353,1171.9332C471.67258,1172.2625,472.22308,1172.5387,472.79697,1172.7584L474.8597,1173.5479C475.34787,1173.7346,475.851,1173.8796,476.3638,1173.9813L478.74313,1174.453C479.1617,1174.5359,479.58554,1174.59,480.01163,1174.6143L482.70755,1174.7682C482.88812,1174.7786,483.06882,1174.7836,483.24957,1174.7833C483.4303,1174.783,483.611,1174.7773,483.7915,1174.7665L486.48694,1174.6034C486.91287,1174.5776,487.33658,1174.5222,487.7549,1174.4379L490.13263,1173.9581C490.64505,1173.8549,491.14764,1173.7081,491.63522,1173.5198L493.69525,1172.7233C494.2684,1172.5018,494.81793,1172.2236,495.33582,1171.8928L497.07825,1170.7798C497.6458,1170.4172,498.172,1169.9938,498.64746,1169.5167L500.0722,1168.0872C500.3126,1167.846,500.53952,1167.5917,500.75174,1167.3253Q505.20975,1161.7336,505.2858,1153.0326L505.28238,1153.0326L505.38962,1151.157L505.58395,1150.1766L505.76233,1149.7106L505.82983,1149.6041L505.82983,1149.6041L505.93613,1149.536L505.93613,1149.536L506.4015,1149.3562L507.3812,1149.1587L507.3812,1149.1587L508.89487,1149.067L508.89487,1149.067L510.40872,1149.1536L510.40872,1149.1536L511.38913,1149.3479L511.8552,1149.5264L511.8552,1149.5264L511.96164,1149.5939L512.02954,1149.7001L512.2095,1150.1655L512.2095,1150.1655L512.4071,1151.1451L512.5314,1153.2012C512.5366,1153.2869,512.54297,1153.3722,512.5503,1153.457L512.5469,1153.457L512.69446,1155.8967C512.7202,1156.3226,512.7755,1156.7463,512.85986,1157.1646L513.3396,1159.5424C513.4429,1160.0548,513.5896,1160.5575,513.7781,1161.045L514.5742,1163.1051C514.7958,1163.6782,515.074,1164.2279,515.4048,1164.7458L516.5177,1166.4884C516.8801,1167.0558,517.3037,1167.5822,517.78076,1168.0576L519.2102,1169.4824C519.68713,1169.9578,520.21484,1170.3796,520.78357,1170.7401L522.52954,1171.8473C523.04846,1172.1763,523.599,1172.4525,524.17285,1172.6722L526.2355,1173.4617C526.72375,1173.6487,527.2268,1173.7936,527.7395,1173.8951L530.1188,1174.367C530.53735,1174.45,530.9613,1174.5039,531.3872,1174.5281L533.95874,1174.675L533.9551,1174.675C534.1737,1174.6903,534.3943,1174.6979,534.61646,1174.6975C534.6289,1174.6975,534.64124,1174.6974,534.6537,1174.6974L534.6499,1174.6974C534.8634,1174.6968,535.0752,1174.6887,535.28516,1174.6735L535.2815,1174.6735L537.8624,1174.5172C538.2883,1174.4915,538.71204,1174.4362,539.13025,1174.3519L541.50793,1173.8722C542.02014,1173.7688,542.5228,1173.6221,543.0104,1173.4337L545.07043,1172.6373C545.64343,1172.4156,546.1931,1172.1376,546.7108,1171.8068L548.45325,1170.6938C549.02075,1170.3314,549.547,1169.9078,550.02234,1169.4308L551.447,1168.0011C551.9225,1167.5242,552.34424,1166.9966,552.70483,1166.4277L553.8119,1164.6815C554.141,1164.1626,554.41736,1163.6119,554.63696,1163.0381L555.4264,1160.9752C555.61316,1160.487,555.7582,1159.984,555.85986,1159.4714L556.33154,1157.0919C556.41455,1156.6733,556.4684,1156.2495,556.4928,1155.8235L556.63135,1153.3993L556.62744,1153.3993C556.63513,1153.3091,556.6417,1153.2184,556.64685,1153.1277L556.7643,1151.0712L556.95874,1150.0912L557.1371,1149.625L557.2046,1149.5186L557.2046,1149.5186L557.3109,1149.4506L557.3109,1149.4506L557.77625,1149.2708L558.756,1149.0731L558.756,1149.0731L560.26904,1148.9814L560.26904,1148.9814L561.78345,1149.0681L561.78345,1149.0681L562.7637,1149.2623L563.22974,1149.4408L563.3363,1149.5084L563.3363,1149.5084L563.40405,1149.6146L563.584,1150.08L563.584,1150.08L563.7816,1151.0597L563.9059,1153.1155C563.9115,1153.2072,563.91833,1153.2986,563.9265,1153.3896L563.9225,1153.3896L564.069,1155.8109C564.0947,1156.2367,564.15,1156.6605,564.2344,1157.0789L564.714,1159.4565C564.81726,1159.9689,564.964,1160.4717,565.15247,1160.9592L565.9486,1163.0193C566.17017,1163.5925,566.4485,1164.1422,566.7792,1164.6602L567.8921,1166.4026C568.2545,1166.9701,568.6781,1167.4962,569.1549,1167.9716L570.58435,1169.3962C571.0613,1169.8717,571.58875,1170.2933,572.15735,1170.654L573.9033,1171.7611C574.42236,1172.0902,574.973,1172.3667,575.5469,1172.5863L577.6094,1173.3757C578.09766,1173.5626,578.6007,1173.7075,579.1133,1173.8092L581.49243,1174.2808C581.911,1174.3639,582.33484,1174.4176,582.76086,1174.442L585.3402,1174.5894L585.33606,1174.5894C585.55225,1174.6042,585.7704,1174.6118,585.9901,1174.6113C585.9922,1174.6113,585.9944,1174.6113,585.99646,1174.6113L586.00073,1174.6113C586.0029,1174.6113,586.005,1174.6113,586.0072,1174.6113C586.2267,1174.6108,586.44495,1174.6028,586.66113,1174.5872L586.65686,1174.5872L589.2357,1174.431C589.6616,1174.4054,590.0853,1174.3501,590.50354,1174.2656L592.8812,1173.786C593.39355,1173.6827,593.8961,1173.5361,594.38354,1173.3475L596.4436,1172.5513C597.0167,1172.3296,597.5664,1172.0514,598.0842,1171.7205L599.8264,1170.6075C600.3939,1170.2451,600.92004,1169.8215,601.3954,1169.3446L602.81995,1167.915C603.2953,1167.4382,603.71704,1166.9106,604.07764,1166.3419L605.1847,1164.596C605.5137,1164.0768,605.79016,1163.5262,606.0099,1162.9523L606.7992,1160.8894C606.9861,1160.4012,607.131,1159.8982,607.23267,1159.3855L607.70447,1157.0061C607.78735,1156.5875,607.8413,1156.1637,607.8656,1155.7377L608.0032,1153.3302L607.99866,1153.3303C608.0071,1153.2345,608.01416,1153.1382,608.01965,1153.0417L608.1372,1150.9857L608.33154,1150.0054L608.51,1149.5393L608.51,1149.5393L608.5774,1149.4329L608.6837,1149.365L609.1493,1149.185L610.1288,1148.9873L610.1288,1148.9873L612.1841,1148.8629C617.2721,1148.5552,621.14734,1144.1807,620.8396,1139.0923C620.54297,1134.1884,616.4696,1130.4109,611.62024,1130.419C611.43774,1130.4192,611.2543,1130.4249,611.0697,1130.436L608.37463,1130.5991C607.9486,1130.6249,607.525,1130.68,607.1067,1130.7644L604.7291,1131.244C604.2169,1131.3475,603.71423,1131.4941,603.2268,1131.6826L601.16675,1132.4789C600.5936,1132.7006,600.04407,1132.9788,599.5261,1133.3094L597.7838,1134.4225C597.2163,1134.785,596.6902,1135.2085,596.21497,1135.6855L594.7904,1137.115C594.31506,1137.5919,593.8933,1138.1195,593.5327,1138.6882L592.42566,1140.4342C592.09656,1140.9532,591.8202,1141.5039,591.6006,1142.0779L590.81116,1144.1406C590.6244,1144.6289,590.4794,1145.132,590.3777,1145.6447L589.906,1148.0239C589.823,1148.4426,589.76904,1148.8666,589.74475,1149.2925L589.5907,1151.9884C589.5852,1152.0831,589.5813,1152.1775,589.57874,1152.2717L589.57446,1152.2717L589.47314,1154.0444L589.2788,1155.0247L589.10034,1155.491L589.03296,1155.5974L588.92676,1155.6652L588.46106,1155.8451L587.48157,1156.0427L587.48157,1156.0427L585.96814,1156.1344L585.96814,1156.1344L584.4542,1156.0479L584.4542,1156.0479L583.4741,1155.8535L583.0077,1155.675L582.90137,1155.6078L582.8336,1155.5015L582.65356,1155.0358L582.45593,1154.056L582.34875,1152.2814L582.3445,1152.2814C582.34155,1152.188,582.3374,1152.0945,582.3318,1152.0006L582.1687,1149.305C582.14294,1148.879,582.08777,1148.4556,582.0033,1148.0371L581.5237,1145.6593C581.4204,1145.1471,581.2737,1144.6444,581.0853,1144.1569L580.28906,1142.0967C580.0675,1141.5236,579.7892,1140.974,579.4585,1140.4562L578.3458,1138.7137C577.9834,1138.1462,577.5598,1137.6199,577.08276,1137.1444L575.6533,1135.7197C575.1764,1135.2443,574.6488,1134.8225,574.07996,1134.4618L572.334,1133.3546C571.8152,1133.0258,571.26465,1132.7493,570.6908,1132.5297L568.6283,1131.7402C568.14,1131.5533,567.63696,1131.4083,567.12427,1131.3068L564.7451,1130.835C564.3264,1130.752,563.9027,1130.6981,563.47656,1130.6737L560.9431,1130.5289L560.9391,1130.5289C560.71045,1130.5122,560.47974,1130.5038,560.2473,1130.5043C560.2334,1130.5043,560.2195,1130.5043,560.20557,1130.5044L560.20154,1130.5044C559.98096,1130.5055,559.7621,1130.5143,559.5449,1130.5308L559.541,1130.5308L557.0016,1130.6843C556.57556,1130.7101,556.152,1130.7654,555.73364,1130.8499L553.3561,1131.3296C552.84375,1131.4329,552.34106,1131.5795,551.85364,1131.768L549.7936,1132.5643C549.22034,1132.7859,548.6708,1133.0641,548.15295,1133.395L546.4105,1134.5079C545.84314,1134.8704,545.3169,1135.294,544.84155,1135.7709L543.4169,1137.2004C542.9415,1137.6775,542.5198,1138.205,542.1592,1138.7737L541.0521,1140.5198C540.723,1141.039,540.44653,1141.5895,540.22705,1142.1635L539.4376,1144.2262C539.25085,1144.7144,539.1057,1145.2175,539.00415,1145.7302L538.5325,1148.1096C538.44946,1148.5282,538.3955,1148.9521,538.3712,1149.3782L538.21716,1152.0742L538.21716,1152.0742L538.0996,1154.1304L537.9053,1155.1107L537.9053,1155.1107L537.7268,1155.5769L537.7268,1155.5769L537.6594,1155.6831L537.6594,1155.6831L537.5532,1155.751L537.08765,1155.9312L536.1079,1156.1285L536.1079,1156.1285L534.5946,1156.2202L534.5946,1156.2202L533.08044,1156.1337L533.08044,1156.1337L532.1002,1155.9392L532.1002,1155.9392L531.63416,1155.7611L531.5276,1155.6935L531.5276,1155.6935L531.45984,1155.5872L531.2799,1155.1217L531.2799,1155.1217L531.0823,1154.1422L530.9739,1152.3492L530.9702,1152.3492C530.9673,1152.2618,530.96326,1152.1742,530.9579,1152.0862L530.7949,1149.3907C530.76904,1148.9648,530.71375,1148.5411,530.6294,1148.1228L530.1498,1145.745C530.0464,1145.2327,529.8998,1144.73,529.7113,1144.2426L528.91504,1142.1823C528.6935,1141.609,528.4153,1141.0593,528.0845,1140.5415L526.9717,1138.7988C526.60913,1138.2314,526.18567,1137.7053,525.7086,1137.2297L524.2792,1135.8049C523.8021,1135.3297,523.27466,1134.9078,522.70593,1134.5472L520.95984,1133.4401C520.4408,1133.1108,519.89026,1132.8346,519.3164,1132.6149L517.2538,1131.8254C516.7656,1131.6385,516.26245,1131.4935,515.74963,1131.3918L513.3705,1130.92C512.9519,1130.837,512.5281,1130.7833,512.1019,1130.7589L509.56308,1130.6138L509.5596,1130.6138C509.33255,1130.5974,509.1035,1130.5892,508.87253,1130.5895C508.86966,1130.5895,508.86685,1130.5895,508.86404,1130.5895L508.86404,1130.5895C508.86118,1130.5895,508.85837,1130.5895,508.8555,1130.5895C508.62466,1130.59,508.3956,1130.5989,508.1686,1130.6161L508.1652,1130.6162L505.62674,1130.7697C505.20078,1130.7954,504.77713,1130.8507,504.35883,1130.935L501.9811,1131.4148C501.4687,1131.5181,500.96606,1131.6649,500.47852,1131.8533L498.4185,1132.6497C497.84518,1132.871,497.29565,1133.1494,496.7777,1133.4802L495.0353,1134.5931C494.4678,1134.9557,493.94162,1135.3792,493.46625,1135.8562L492.0415,1137.2858C491.5661,1137.7627,491.14435,1138.2903,490.78378,1138.8591L489.67673,1140.6053C489.34763,1141.1243,489.07114,1141.6748,488.85153,1142.249L488.0621,1144.3118C487.8753,1144.7999,487.7303,1145.3031,487.62866,1145.8158L487.15686,1148.1951C487.07388,1148.6138,487.02002,1149.0377,486.9957,1149.4637L486.8416,1152.1598C486.82693,1152.4166,486.82285,1152.6715,486.82913,1152.9243L486.82587,1152.9243Q486.80984,1154.8822,486.44565,1155.6112L486.4424,1155.6112L486.2874,1155.7666L486.17776,1155.8368L485.71216,1156.0167L484.73248,1156.2144L484.73248,1156.2144L483.21875,1156.3058L483.21875,1156.3058L481.70477,1156.2194L481.70477,1156.2194L480.72446,1156.025L480.72446,1156.025L480.25845,1155.8467L480.14822,1155.7767L480.14822,1155.7767L479.9927,1155.6217L479.98953,1155.6217Q479.6228,1154.8936,479.60034,1152.934L479.59717,1152.934C479.60254,1152.6821,479.59763,1152.428,479.5821,1152.1719L479.41904,1149.4763C479.3933,1149.0504,479.33798,1148.6267,479.25363,1148.2084L478.77393,1145.8306C478.6706,1145.3181,478.5239,1144.8154,478.33545,1144.3279L477.53912,1142.2676C477.3176,1141.6945,477.03934,1141.1447,476.7085,1140.6267L475.5956,1138.8843C475.23312,1138.3167,474.8096,1137.7906,474.3326,1137.3153L472.90308,1135.8904C472.4261,1135.4149,471.8985,1134.993,471.3297,1134.6324L469.58362,1133.5254C469.06464,1133.1963,468.5141,1132.9199,467.9402,1132.7003L465.8774,1131.9106C465.3892,1131.7239,464.88608,1131.5789,464.37332,1131.4772L461.99393,1131.0052C461.57535,1130.9224,461.15146,1130.8684,460.72543,1130.8442L458.0294,1130.6901C457.8449,1130.6796,457.66132,1130.6744,457.4789,1130.6748 Z"/>
</g>
<g style="fill:rgb(163,45,45); fill-opacity:1.0; stroke-linejoin: miter">
<path d="M457.47897,1194.6749C452.629,1194.683,448.5676,1198.4741,448.2873,1203.3793C447.9965,1208.4692,451.88666,1212.831,456.97626,1213.122L459.03223,1213.2393L459.03223,1213.2393L460.01263,1213.4337L460.4787,1213.6119L460.4787,1213.6119L460.58514,1213.6796L460.65314,1213.786L460.833,1214.2513L461.03058,1215.231L461.14352,1217.0974L461.14053,1217.0974Q461.24347,1225.8042,465.72238,1231.3839C465.93558,1231.6495,466.16333,1231.9032,466.40457,1232.1437L467.83417,1233.5685C468.31116,1234.044,468.83878,1234.4657,469.40756,1234.8263L471.1536,1235.9333C471.67264,1236.2626,472.22314,1236.5388,472.79703,1236.7585L474.85977,1237.548C475.34793,1237.7347,475.85107,1237.8798,476.36386,1237.9814L478.7432,1238.4531C479.16177,1238.536,479.5856,1238.5901,480.0117,1238.6144L482.7076,1238.7683C482.88818,1238.7787,483.06888,1238.7837,483.24963,1238.7834C483.43036,1238.7831,483.61105,1238.7775,483.79156,1238.7666L486.487,1238.6035C486.91293,1238.5778,487.33664,1238.5223,487.75497,1238.438L490.1327,1237.9583C490.6451,1237.855,491.1477,1237.7083,491.63528,1237.5199L493.6953,1236.7234C494.26846,1236.502,494.818,1236.2238,495.33588,1235.893L497.0783,1234.7799C497.64587,1234.4174,498.17206,1233.9939,498.64752,1233.5168L500.07227,1232.0873C500.31265,1231.8461,500.53958,1231.5918,500.7518,1231.3254Q505.2098,1225.7338,505.28586,1217.0327L505.28244,1217.0327L505.38968,1215.1571L505.584,1214.1768L505.7624,1213.7107L505.8299,1213.6042L505.8299,1213.6042L505.9362,1213.5361L505.9362,1213.5361L506.40155,1213.3563L507.38126,1213.1588L507.38126,1213.1588L508.89493,1213.0671L508.89493,1213.0671L510.40878,1213.1537L510.40878,1213.1537L511.3892,1213.348L511.85526,1213.5265L511.85526,1213.5265L511.9617,1213.594L512.0296,1213.7002L512.20953,1214.1656L512.20953,1214.1656L512.40717,1215.1453L512.53143,1217.2013C512.5367,1217.287,512.543,1217.3723,512.55035,1217.4572L512.54694,1217.4572L512.6945,1219.8969C512.7203,1220.3228,512.7756,1220.7465,512.8599,1221.1647L513.33966,1223.5425C513.44293,1224.0549,513.58966,1224.5576,513.77814,1225.0452L514.5743,1227.1052C514.79584,1227.6783,515.07404,1228.228,515.40485,1228.746L516.51776,1230.4885C516.8802,1231.0559,517.3038,1231.5823,517.7808,1232.0577L519.21027,1233.4825C519.6872,1233.9579,520.2149,1234.3798,520.7836,1234.7402L522.5296,1235.8474C523.0485,1236.1764,523.59906,1236.4526,524.1729,1236.6724L526.23553,1237.4618C526.7238,1237.6488,527.22687,1237.7937,527.73956,1237.8953L530.11884,1238.3671C530.5374,1238.4501,530.96136,1238.504,531.38727,1238.5282L533.9588,1238.6752L533.95514,1238.6752C534.17377,1238.6904,534.39435,1238.698,534.6165,1238.6976C534.62897,1238.6976,534.6413,1238.6975,534.65375,1238.6975L534.64996,1238.6975C534.86346,1238.6969,535.07526,1238.6888,535.2852,1238.6736L535.28156,1238.6736L537.8625,1238.5173C538.2884,1238.4916,538.7121,1238.4363,539.1303,1238.352L541.508,1237.8723C542.0202,1237.7689,542.5229,1237.6222,543.01044,1237.4338L545.0705,1236.6375C545.6435,1236.4158,546.1932,1236.1377,546.7109,1235.8069L548.4533,1234.694C549.0208,1234.3315,549.54706,1233.908,550.0224,1233.4309L551.4471,1232.0012C551.92255,1231.5243,552.3443,1230.9967,552.7049,1230.4279L553.81195,1228.6816C554.14105,1228.1627,554.4174,1227.612,554.637,1227.0382L555.42645,1224.9753C555.6132,1224.4872,555.75824,1223.9841,555.8599,1223.4716L556.3316,1221.092C556.4146,1220.6735,556.46844,1220.2496,556.49286,1219.8236L556.6314,1217.3994L556.6275,1217.3994C556.6352,1217.3092,556.6418,1217.2185,556.6469,1217.1278L556.76434,1215.0713L556.9588,1214.0913L557.13715,1213.6251L557.20465,1213.5187L557.20465,1213.5187L557.311,1213.4507L557.311,1213.4507L557.7763,1213.2709L558.75604,1213.0732L558.75604,1213.0732L560.2691,1212.9816L560.2691,1212.9816L561.7835,1213.0682L561.7835,1213.0682L562.76373,1213.2625L563.2298,1213.4409L563.33636,1213.5085L563.33636,1213.5085L563.4041,1213.6147L563.58405,1214.0801L563.58405,1214.0801L563.7817,1215.0598L563.90594,1217.1156C563.91156,1217.2073,563.9184,1217.2987,563.9266,1217.3898L563.92255,1217.3898L564.06903,1219.811C564.0948,1220.2368,564.1501,1220.6606,564.23444,1221.079L564.71405,1223.4567C564.8173,1223.969,564.96405,1224.4718,565.1525,1224.9594L565.94867,1227.0194C566.1702,1227.5927,566.44855,1228.1423,566.77924,1228.6603L567.89215,1230.4027C568.2546,1230.9702,568.67816,1231.4963,569.15497,1231.9717L570.5844,1233.3964C571.06134,1233.8718,571.5888,1234.2935,572.1574,1234.6542L573.9034,1235.7612C574.4224,1236.0903,574.9731,1236.3668,575.54694,1236.5864L577.60944,1237.3759C578.0977,1237.5627,578.60077,1237.7076,579.11334,1237.8093L581.4925,1238.2809C581.9111,1238.364,582.3349,1238.4177,582.7609,1238.4421L585.3403,1238.5895L585.3361,1238.5895C585.5523,1238.6044,585.77045,1238.6119,585.9902,1238.6115C585.99225,1238.6115,585.99445,1238.6115,585.9965,1238.6115L586.0008,1238.6115C586.003,1238.6115,586.00507,1238.6115,586.00726,1238.6115C586.22675,1238.611,586.445,1238.6029,586.6612,1238.5873L586.6569,1238.5873L589.2358,1238.4312C589.6617,1238.4055,590.0854,1238.3502,590.5036,1238.2657L592.8813,1237.7861C593.3936,1237.6829,593.8962,1237.5363,594.3836,1237.3477L596.44366,1236.5514C597.0168,1236.3297,597.56647,1236.0515,598.0843,1235.7206L599.8265,1234.6077C600.394,1234.2452,600.9201,1233.8217,601.39545,1233.3447L602.82,1231.9152C603.29535,1231.4384,603.7171,1230.9108,604.0777,1230.342L605.18475,1228.5961C605.51373,1228.0769,605.7902,1227.5264,606.00995,1226.9524L606.79926,1224.8895C606.98615,1224.4014,607.13104,1223.8983,607.2327,1223.3856L607.7045,1221.0062C607.7874,1220.5876,607.8414,1220.1638,607.86566,1219.7378L608.00323,1217.3303L607.9987,1217.3304C608.00714,1217.2346,608.0142,1217.1383,608.0197,1217.0419L608.13727,1214.9858L608.3316,1214.0055L608.5101,1213.5394L608.5101,1213.5394L608.57745,1213.433L608.6838,1213.3651L609.14935,1213.1852L610.12885,1212.9874L610.12885,1212.9874L612.18414,1212.863C617.27216,1212.5553,621.1474,1208.1808,620.83966,1203.0924C620.543,1198.1885,616.46967,1194.411,611.6203,1194.4191C611.4378,1194.4193,611.25433,1194.425,611.06976,1194.4362L608.3747,1194.5992C607.94867,1194.625,607.5251,1194.6802,607.10675,1194.7645L604.7292,1195.2441C604.217,1195.3477,603.7143,1195.4943,603.22687,1195.6827L601.1668,1196.479C600.5937,1196.7007,600.0441,1196.9789,599.5262,1197.3096L597.7839,1198.4226C597.2164,1198.7852,596.69025,1199.2086,596.215,1199.6857L594.79047,1201.1151C594.3151,1201.592,593.8934,1202.1196,593.5328,1202.6884L592.4257,1204.4343C592.0966,1204.9534,591.82025,1205.504,591.60065,1206.078L590.8112,1208.1407C590.62445,1208.629,590.47943,1209.1321,590.37775,1209.6448L589.90607,1212.024C589.82306,1212.4427,589.7691,1212.8667,589.7448,1213.2926L589.59076,1215.9885C589.58527,1216.0833,589.58136,1216.1776,589.5788,1216.2719L589.5745,1216.2719L589.4732,1218.0446L589.2789,1219.0248L589.1004,1219.4911L589.033,1219.5975L588.9268,1219.6653L588.4611,1219.8452L587.4816,1220.0428L587.4816,1220.0428L585.9682,1220.1345L585.9682,1220.1345L584.4543,1220.048L584.4543,1220.048L583.4742,1219.8536L583.00775,1219.6752L582.9014,1219.6079L582.8337,1219.5016L582.6536,1219.0359L582.456,1218.0562L582.3488,1216.2815L582.34454,1216.2815C582.3416,1216.1881,582.33746,1216.0946,582.33185,1216.0007L582.16876,1213.3052C582.143,1212.8792,582.0878,1212.4557,582.00336,1212.0372L581.52374,1209.6594C581.4205,1209.1472,581.27374,1208.6445,581.0854,1208.157L580.2891,1206.0968C580.06757,1205.5237,579.78925,1204.9741,579.45856,1204.4563L578.3459,1202.7139C577.98346,1202.1464,577.5599,1201.62,577.0828,1201.1445L575.6534,1199.7198C575.17645,1199.2444,574.64886,1198.8226,574.08,1198.4619L572.33405,1197.3547C571.81525,1197.0259,571.2647,1196.7494,570.69086,1196.5298L568.62836,1195.7404C568.1401,1195.5535,567.637,1195.4084,567.1243,1195.3069L564.7452,1194.8351C564.3265,1194.7521,563.9028,1194.6982,563.4766,1194.6738L560.9432,1194.529L560.93915,1194.529C560.7105,1194.5123,560.4798,1194.5039,560.2474,1194.5044C560.23346,1194.5044,560.21954,1194.5044,560.2056,1194.5045L560.2016,1194.5045C559.981,1194.5056,559.76215,1194.5144,559.545,1194.5309L559.5411,1194.5309L557.00165,1194.6844C556.5756,1194.7102,556.15204,1194.7655,555.7337,1194.85L553.35614,1195.3297C552.8438,1195.433,552.3411,1195.5796,551.8537,1195.7681L549.79364,1196.5645C549.2204,1196.786,548.67084,1197.0642,548.153,1197.3951L546.4106,1198.508C545.8432,1198.8705,545.31696,1199.2941,544.8416,1199.771L543.41693,1201.2006C542.9416,1201.6776,542.51984,1202.2051,542.15924,1202.7738L541.0522,1204.5199C540.7231,1205.0391,540.4466,1205.5896,540.2271,1206.1636L539.4377,1208.2263C539.2509,1208.7145,539.1058,1209.2177,539.0042,1209.7303L538.53253,1212.1097C538.4495,1212.5283,538.39557,1212.9523,538.3713,1213.3783L538.2172,1216.0743L538.2172,1216.0743L538.0997,1218.1305L537.90533,1219.1108L537.90533,1219.1108L537.72687,1219.577L537.72687,1219.577L537.6595,1219.6832L537.6595,1219.6832L537.5533,1219.7511L537.0877,1219.9313L536.108,1220.1287L536.108,1220.1287L534.59467,1220.2203L534.59467,1220.2203L533.0805,1220.1338L533.0805,1220.1338L532.1003,1219.9393L532.1003,1219.9393L531.6342,1219.7612L531.52765,1219.6936L531.52765,1219.6936L531.4599,1219.5873L531.27997,1219.1218L531.27997,1219.1218L531.08234,1218.1423L530.97394,1216.3494L530.9703,1216.3494C530.96735,1216.262,530.9633,1216.1743,530.95795,1216.0863L530.795,1213.3909C530.7691,1212.965,530.7138,1212.5413,530.62946,1212.1229L530.14984,1209.7451C530.04645,1209.2328,529.89984,1208.7301,529.71136,1208.2427L528.9151,1206.1824C528.69354,1205.6091,528.41534,1205.0594,528.08453,1204.5416L526.97174,1202.799C526.6092,1202.2316,526.1857,1201.7054,525.7087,1201.2299L524.27924,1199.805C523.8022,1199.3298,523.2747,1198.908,522.706,1198.5474L520.9599,1197.4402C520.44086,1197.111,519.8903,1196.8347,519.31647,1196.615L517.25385,1195.8256C516.7657,1195.6387,516.2625,1195.4937,515.7497,1195.392L513.37054,1194.9202C512.95197,1194.8372,512.52814,1194.7834,512.102,1194.759L509.56314,1194.6139L509.55966,1194.6139C509.3326,1194.5975,509.10355,1194.5894,508.8726,1194.5896C508.86972,1194.5896,508.8669,1194.5896,508.8641,1194.5896L508.8641,1194.5896C508.86124,1194.5896,508.85843,1194.5896,508.85556,1194.5896C508.62473,1194.5901,508.39566,1194.599,508.16867,1194.6162L508.16525,1194.6163L505.6268,1194.7698C505.20084,1194.7955,504.7772,1194.8508,504.3589,1194.9352L501.98117,1195.4149C501.46875,1195.5182,500.96613,1195.665,500.47858,1195.8534L498.41855,1196.6498C497.84525,1196.8711,497.29572,1197.1495,496.77777,1197.4803L495.03537,1198.5933C494.46786,1198.9558,493.94168,1199.3793,493.4663,1199.8563L492.04156,1201.2859C491.56616,1201.7628,491.1444,1202.2904,490.78384,1202.8593L489.6768,1204.6055C489.3477,1205.1244,489.0712,1205.6749,488.8516,1206.2491L488.06216,1208.3119C487.87537,1208.8,487.73035,1209.3032,487.62872,1209.8159L487.15692,1212.1952C487.07394,1212.6139,487.02008,1213.0378,486.99576,1213.4639L486.84167,1216.1599C486.827,1216.4167,486.8229,1216.6716,486.8292,1216.9244L486.82593,1216.9244Q486.8099,1218.8823,486.4457,1219.6113L486.44247,1219.6113L486.28748,1219.7667L486.17783,1219.8369L485.71222,1220.0168L484.73254,1220.2145L484.73254,1220.2145L483.2188,1220.3059L483.2188,1220.3059L481.70483,1220.2195L481.70483,1220.2195L480.72452,1220.0251L480.72452,1220.0251L480.2585,1219.8468L480.1483,1219.7769L480.1483,1219.7769L479.99277,1219.6218L479.9896,1219.6218Q479.62286,1218.8937,479.6004,1216.9341L479.59723,1216.9341C479.6026,1216.6823,479.5977,1216.4281,479.58215,1216.172L479.4191,1213.4764C479.39337,1213.0505,479.33804,1212.6268,479.2537,1212.2085L478.774,1209.8307C478.67065,1209.3182,478.52396,1208.8156,478.3355,1208.328L477.53918,1206.2677C477.31766,1205.6946,477.0394,1205.1448,476.70856,1204.6268L475.59567,1202.8844C475.2332,1202.3168,474.80966,1201.7908,474.33267,1201.3154L472.90314,1199.8905C472.42615,1199.415,471.89856,1198.9932,471.32977,1198.6326L469.58368,1197.5255C469.0647,1197.1964,468.51416,1196.92,467.94025,1196.7004L465.87747,1195.9108C465.38925,1195.724,464.88614,1195.579,464.37338,1195.4773L461.994,1195.0054C461.5754,1194.9225,461.15152,1194.8685,460.7255,1194.8444L458.02945,1194.6902C457.84497,1194.6797,457.66138,1194.6746,457.47897,1194.6749 Z"/>
</g>
</g>
</svg>